HIERARCHY
ROOT root
{
	OFFSET	0	13.1	24.9
	CHANNELS 6  Xposition Yposition Zposition Xrotation Yrotation Zrotation
	JOINT spine_1
	{
		OFFSET	0	9.99999	0
		CHANNELS 3  Xrotation Yrotation Zrotation
		JOINT spine_2
		{
			OFFSET	0	112	-10
			CHANNELS 3  Xrotation Yrotation Zrotation
			JOINT spine_3
			{
				OFFSET	0	206.5	19.3
				CHANNELS 3  Xrotation Yrotation Zrotation
				JOINT spine_4
				{
					OFFSET	0	110.4	14.6
					CHANNELS 3  Xrotation Yrotation Zrotation
					JOINT neck_1
					{
						OFFSET	0	71.8	-50.3
						CHANNELS 3  Xrotation Yrotation Zrotation
						JOINT neck_2
						{
							OFFSET	0	86.2	-25.8
							CHANNELS 3  Xrotation Yrotation Zrotation
							JOINT head_ee
							{
								OFFSET	0	179.8	-8.7
								CHANNELS 3  Xrotation Yrotation Zrotation
								End Site
								{
									OFFSET	1	0	0
								}
							}
						}
					}
					JOINT left_clavicle
					{
						OFFSET	-43.2	22.4	-70.8
						CHANNELS 3  Xrotation Yrotation Zrotation
						JOINT left_shoulder
						{
							OFFSET	-93.9	-5.79999	48.7
							CHANNELS 3  Xrotation Yrotation Zrotation
							JOINT left_elbow
							{
								OFFSET	-291.4	-30.8	15.2
								CHANNELS 3  Xrotation Yrotation Zrotation
								JOINT left_lowarm_twist
								{
									OFFSET	-110.7	-3.89999	13.6
									CHANNELS 3  Xrotation Yrotation Zrotation
									JOINT left_hand
									{
										OFFSET	-110.7	-3.89999	13.6
										CHANNELS 3  Xrotation Yrotation Zrotation
										JOINT left_ee
										{
											OFFSET	-80.8	-5.10001	12.1
											CHANNELS 3  Xrotation Yrotation Zrotation
											End Site
											{
												OFFSET	1	0	0
											}
										}
									}
								}
							}
						}
					}
					JOINT right_clavicle
					{
						OFFSET	43.2	22.4	-70.8
						CHANNELS 3  Xrotation Yrotation Zrotation
						JOINT right_shoulder
						{
							OFFSET	93.9	-5.79999	48.7
							CHANNELS 3  Xrotation Yrotation Zrotation
							JOINT right_elbow
							{
								OFFSET	291.4	-30.8	15.2
								CHANNELS 3  Xrotation Yrotation Zrotation
								JOINT right_lowarm_twist
								{
									OFFSET	110.7	-3.89999	13.6
									CHANNELS 3  Xrotation Yrotation Zrotation
									JOINT right_hand
									{
										OFFSET	110.7	-3.89999	13.6
										CHANNELS 3  Xrotation Yrotation Zrotation
										JOINT right_ee
										{
											OFFSET	80.8	-5.10001	12.1
											CHANNELS 3  Xrotation Yrotation Zrotation
											End Site
											{
												OFFSET	1	0	0
											}
										}
									}
								}
							}
						}
					}
				}
			}
		}
	}
	JOINT left_hip
	{
		OFFSET	-82.8	-127.5	0.300001
		CHANNELS 3  Xrotation Yrotation Zrotation
		JOINT left_knee
		{
			OFFSET	-28.2	-396.7	2.2
			CHANNELS 3  Xrotation Yrotation Zrotation
			JOINT left_ankle
			{
				OFFSET	-11.7	-411.3	35.4
				CHANNELS 3  Xrotation Yrotation Zrotation
				JOINT left_toes
				{
					OFFSET	0	-60	-88.6
					CHANNELS 3  Xrotation Yrotation Zrotation
					JOINT left_foot_ee
					{
						OFFSET	-22.5	-16.5	-42.2
						CHANNELS 3  Xrotation Yrotation Zrotation
						End Site
						{
							OFFSET	1	0	0
						}
					}
				}
			}
		}
	}
	JOINT right_hip
	{
		OFFSET	82.8	-127.5	0.300001
		CHANNELS 3  Xrotation Yrotation Zrotation
		JOINT right_knee
		{
			OFFSET	28.2	-396.7	2.2
			CHANNELS 3  Xrotation Yrotation Zrotation
			JOINT right_ankle
			{
				OFFSET	11.7	-411.3	35.4
				CHANNELS 3  Xrotation Yrotation Zrotation
				JOINT right_toes
				{
					OFFSET	0	-60	-88.6
					CHANNELS 3  Xrotation Yrotation Zrotation
					JOINT right_foot_ee
					{
						OFFSET	22.5	-16.5	-42.2
						CHANNELS 3  Xrotation Yrotation Zrotation
						End Site
						{
							OFFSET	1	0	0
						}
					}
				}
			}
		}
	}
}
MOTION
Frames: 15
Frame Time: 0.02
3419.46 659.261 -405.285 38.9601 -83.4438 41.4571 -2.21434 -0.308395 -2.15027 -2.21178 -0.170976 -2.16553 -2.20247 0.370649 -2.14042 -2.20886 0.0280413 -2.17208 -20.5942 9.02005 3.43749 -20.9331 15.691 7.10574 -0.0 0.0 -0.0 7.15689 24.8411 12.527 -12.0462 -6.28631 63.203 0.234587 -6.62864 0.013585 3.61229 0.113194 -0.447435 -2.09923 7.17515 -10.7246 -0.0 0.0 -0.0 7.12908 -16.9917 -13.1952 -4.66157 31.0321 -56.9674 2.23501 47.9047 -0.992963 4.79215 -0.144023 0.594995 0.881769 -27.9346 -15.9365 0.0 0.0 0.0 -4.9675 -4.46441 -15.4264 -43.6178 -0.712824 6.49716 31.0578 27.5283 -4.29741 22.5882 -0.0 -0.0 -0.0 0.0 -0.0 19.8073 7.20362 -4.06556 -42.3204 0.620953 -6.32003 38.514 -5.91315 4.72724 -16.4449 0.0 0.0 0.0 0.0 0.0 
3423.69 663.731 -402.728 36.1235 -83.4825 38.3272 -2.13324 -0.223523 -2.11327 -2.13076 -0.0886283 -2.12321 -2.12491 0.437181 -2.07962 -2.13093 0.103335 -2.12254 -21.2252 8.84768 3.07212 -21.5844 15.5779 6.79201 -0.0 0.0 -0.0 7.12224 25.1034 12.4509 -11.8256 -6.26463 63.2575 0.194031 -5.49038 0.00930365 3.73328 0.116495 -0.462538 -2.22336 7.31551 -11.4793 -0.0 0.0 -0.0 7.09843 -17.3694 -13.1176 -3.83954 31.3675 -57.4349 2.28949 48.5899 -1.03361 4.77107 -0.143499 0.592353 0.887193 -27.9439 -15.9703 0.0 0.0 0.0 -2.20272 -5.02733 -15.096 -42.6938 -0.646982 6.37122 29.8661 26.486 -4.12954 22.5985 -0.0 -0.0 -0.0 0.0 -0.0 19.5629 7.93288 -3.74708 -42.2815 0.618258 -6.31468 38.8002 -4.60724 4.7526 -16.4017 0.0 0.0 0.0 0.0 0.0 
3432.99 670.4 -408.091 29.7343 -82.2011 31.7457 -2.06904 -0.268965 -2.05989 -2.06669 -0.137372 -2.07283 -2.05924 0.375145 -2.04323 -2.06506 0.0478195 -2.07682 -21.2299 8.14738 2.03129 -21.5642 14.7309 5.51328 -0.0 0.0 -0.0 6.93951 25.2823 12.18 -12.9713 -6.06119 63.8128 0.264442 -7.46323 0.0172473 3.48503 0.109687 -0.431558 -2.20877 7.7661 -11.161 -0.0 0.0 -0.0 7.03257 -17.7096 -12.9867 -2.91316 29.6528 -57.2187 2.32535 49.031 -1.0606 5.23793 -0.154879 0.650905 0.883525 -28.1067 -15.9975 0.0 0.0 0.0 -0.431596 -4.84294 -14.6522 -40.8763 -0.523456 6.12051 27.1007 26.2908 -3.79454 22.1807 -0.0 -0.0 -0.0 0.0 -0.0 18.9269 8.40731 -3.67915 -42.4906 0.63277 -6.34337 35.2081 -7.97179 4.42251 -16.8697 0.0 0.0 0.0 0.0 0.0 
3437.39 673.89 -404.788 25.6484 -81.6746 27.5321 -1.8438 -0.276888 -2.22183 -1.84107 -0.134982 -2.23494 -1.8331 0.408561 -2.20144 -1.83986 0.0558484 -2.23831 -21.63 8.63419 2.77219 -21.9938 15.3327 6.48048 -0.0 0.0 -0.0 6.82723 25.2208 12.0316 -12.7506 -6.05116 63.9149 0.203138 -5.74639 0.0101952 3.70722 0.115787 -0.459283 -2.18174 7.82584 -10.9529 -0.0 0.0 -0.0 6.90939 -18.5312 -12.7303 -2.47603 30.0715 -57.6617 2.43689 50.3544 -1.14566 5.19985 -0.153969 0.646125 0.89355 -27.9408 -16.0057 0.0 0.0 0.0 0.748096 -6.00732 -14.2603 -39.7557 -0.451297 5.96406 26.3202 25.7912 -3.68772 22.1243 -0.0 -0.0 -0.0 0.0 -0.0 18.8459 8.69351 -3.64564 -42.4054 0.626845 -6.33169 35.4158 -8.68255 4.44533 -16.8196 0.0 0.0 0.0 0.0 0.0 
3443.47 674.233 -406.915 22.5537 -80.7966 24.3396 -1.77703 -0.265632 -2.27302 -1.77416 -0.120495 -2.2853 -1.7666 0.43219 -2.24732 -1.77364 0.0719411 -2.28735 -20.3075 8.32032 2.59029 -20.6101 14.7448 5.97057 -0.0 0.0 -0.0 6.74731 25.1753 11.926 -13.056 -5.94211 64.345 0.25258 -7.13199 0.0157405 3.69481 0.115449 -0.457734 -2.20655 8.20614 -10.9299 -0.0 0.0 -0.0 6.81501 -18.8239 -12.5608 -2.14508 28.806 -57.8522 2.38144 49.7054 -1.10316 5.4895 -0.160813 0.682492 0.895176 -27.9533 -16.0187 0.0 0.0 0.0 3.26635 -5.64689 -13.506 -40.7172 -0.513022 6.09838 27.1938 25.7379 -3.79289 22.3552 -0.0 -0.0 -0.0 0.0 -0.0 17.7182 8.5516 -3.13972 -41.5639 0.569246 -6.2158 33.2834 -11.7286 4.25157 -17.1119 0.0 0.0 0.0 0.0 0.0 
3450.06 677.786 -405.896 20.3389 -80.7585 21.8856 -1.58079 -0.294858 -2.22577 -1.57805 -0.152665 -2.24002 -1.56953 0.382436 -2.21242 -1.57636 0.0283188 -2.24503 -20.7371 8.61671 2.4555 -21.0847 15.4062 6.04467 -0.0 0.0 -0.0 6.7974 25.013 12.0107 -13.1428 -5.90064 64.3355 0.210951 -5.96584 0.0109924 3.70705 0.115782 -0.459263 -2.18854 8.12855 -10.8492 -0.0 0.0 -0.0 6.65966 -18.9575 -12.309 -2.37618 28.7523 -57.6698 2.40375 49.9686 -1.12021 5.3929 -0.158551 0.67036 0.87126 -28.3418 -15.9971 0.0 0.0 0.0 3.31894 -6.45394 -12.4598 -38.0535 -0.3476 5.72385 25.4772 25.6472 -3.58075 22.0952 -0.0 -0.0 -0.0 0.0 -0.0 17.7459 9.31983 -3.34772 -42.1531 0.609398 -6.29703 33.5215 -11.2721 4.27239 -17.1351 0.0 0.0 0.0 0.0 0.0 
3455.67 681.008 -409.133 20.1679 -81.3176 21.8353 -1.5516 -0.152845 -2.19706 -1.54891 -0.0127645 -2.20233 -1.54617 0.508639 -2.14286 -1.55254 0.163916 -2.19626 -20.4597 8.7727 3.10772 -20.786 15.3684 6.67077 -0.0 0.0 -0.0 6.89127 25.2107 12.1208 -13.2866 -5.79703 64.6909 0.218639 -6.1816 0.0118059 3.86737 0.120117 -0.479283 -2.2077 8.36008 -10.8616 -0.0 0.0 -0.0 6.60242 -19.2775 -12.1982 -2.33299 28.8253 -57.4511 2.44492 50.4468 -1.15185 5.29184 -0.156162 0.657672 0.839494 -28.9728 -16.0028 0.0 0.0 0.0 4.87995 -6.57787 -11.0495 -35.0414 -0.181805 5.29178 26.5534 25.5509 -3.71087 22.2837 -0.0 -0.0 -0.0 0.0 -0.0 16.4174 9.20307 -3.19752 -39.3306 0.42473 -5.90436 34.738 -11.3782 4.39507 -16.8731 0.0 0.0 0.0 0.0 0.0 
3461.18 681.18 -411.184 20.7263 -80.728 22.038 -1.57646 -0.180764 -2.09388 -1.57403 -0.0471886 -2.10113 -1.57018 0.452068 -2.05249 -1.57604 0.122317 -2.0981 -20.2871 8.44669 2.48314 -20.6045 15.0409 5.92545 -0.0 0.0 -0.0 6.74194 25.2045 11.9159 -13.4224 -5.76327 64.7887 0.237355 -6.70613 0.0139064 3.62465 0.113532 -0.448977 -2.30264 8.54588 -11.3956 -0.0 0.0 -0.0 7.40286 -19.6059 -13.4116 -1.54674 28.1952 -57.1832 2.24764 48.0652 -1.00235 5.23424 -0.154791 0.650442 0.818412 -28.4703 -15.7352 0.0 0.0 0.0 6.80893 -6.04692 -9.76661 -30.3436 0.0307519 4.60249 26.8208 25.2141 -3.73592 21.3881 -0.0 -0.0 -0.0 0.0 -0.0 16.0004 9.43903 -3.06845 -40.41 0.493054 -6.05557 35.0977 -12.1916 4.43737 -16.8858 0.0 0.0 0.0 0.0 0.0 
3464.11 682.86 -415.293 20.0577 -80.662 21.0093 -1.64565 -0.160614 -2.01004 -1.6434 -0.0324108 -2.01618 -1.64029 0.448693 -1.96591 -1.64566 0.13265 -2.01207 -19.562 8.26197 2.45783 -19.8439 14.6574 5.71509 -0.0 0.0 -0.0 6.73406 24.9802 11.9262 -12.9557 -5.59615 65.5811 0.317384 -8.93525 0.0247983 4.31961 0.132041 -0.535822 -2.32778 9.81954 -10.9255 -0.0 0.0 -0.0 7.32779 -18.6982 -13.3755 -2.28801 28.5914 -56.5476 2.22525 47.7801 -0.985731 6.34333 -0.179918 0.789889 1.11961 -29.2238 -17.6598 0.0 0.0 0.0 8.22152 -5.55325 -8.95821 -28.4922 0.0988586 4.32653 28.785 23.8252 -3.93927 21.4858 -0.0 -0.0 -0.0 0.0 -0.0 14.512 10.1911 -2.12625 -38.0544 0.347651 -5.72398 35.1914 -14.0351 4.4655 -16.6882 0.0 0.0 0.0 0.0 0.0 
3464.73 682.544 -417.24 17.5359 -81.0306 18.3412 -1.59589 -0.0353928 -1.93186 -1.59381 0.0875845 -1.93019 -1.59515 0.543343 -1.85424 -1.59987 0.243738 -1.91675 -18.8811 8.37615 2.41529 -19.1547 14.8598 5.62617 -0.0 0.0 -0.0 7.02366 24.8059 12.3451 -12.7229 -5.43104 65.7481 0.328477 -9.24224 0.0265506 3.93661 0.121971 -0.487934 -2.27035 8.95386 -10.9803 -0.0 0.0 -0.0 7.64372 -19.5217 -13.7945 -2.26825 28.318 -56.1099 2.22533 47.7811 -0.985793 5.97036 -0.171769 0.742942 0.987983 -28.6517 -16.7509 0.0 0.0 0.0 9.0685 -4.91119 -8.03846 -25.5084 0.189738 3.87768 28.1768 24.5672 -3.88404 21.1563 -0.0 -0.0 -0.0 0.0 -0.0 14.3428 9.72742 -1.46832 -37.1237 0.29399 -5.59139 35.0017 -12.9336 4.43488 -16.947 0.0 0.0 0.0 0.0 0.0 
3473.2 687.27 -421.57 15.99 -81.2023 16.4469 -1.4813 0.00574571 -1.92751 -1.47924 0.128363 -1.92324 -1.48206 0.577693 -1.83894 -1.48667 0.280073 -1.90707 -18.7068 8.37732 2.48974 -18.9729 14.8122 5.67013 -0.0 0.0 -0.0 6.94048 24.8977 12.2202 -12.8223 -5.22246 66.2462 0.330993 -9.3118 0.0269561 4.02024 0.124198 -0.498385 -2.33996 9.44775 -11.1913 -0.0 0.0 -0.0 7.55649 -19.3977 -13.6705 -3.40259 27.0391 -55.9238 2.17957 47.1884 -0.95206 6.31003 -0.179202 0.785695 1.07409 -28.4361 -17.1811 0.0 0.0 0.0 9.38616 -4.54501 -7.7363 -26.2704 0.168757 3.99273 29.2862 23.557 -3.9917 21.5261 -0.0 -0.0 -0.0 0.0 -0.0 13.5584 10.0005 -0.639067 -35.9282 0.228249 -5.41987 34.8781 -13.8178 4.4319 -16.7404 0.0 0.0 0.0 0.0 0.0 
3476.26 687.741 -422.911 14.548 -81.8075 14.9195 -1.4142 0.105101 -1.78698 -1.41245 0.218581 -1.77668 -1.41812 0.628997 -1.67596 -1.42186 0.356461 -1.75423 -18.8497 8.81259 3.14999 -19.1281 15.3127 6.48084 -0.0 0.0 -0.0 6.91278 24.5173 12.2192 -12.3012 -5.34816 66.3759 0.372865 -10.4651 0.0341473 4.08439 0.125895 -0.506404 -2.4022 9.78076 -11.4322 -0.0 0.0 -0.0 7.57897 -18.9241 -13.7508 -4.65276 27.3465 -56.1154 2.14529 46.7355 -0.927005 6.87603 -0.191024 0.85703 1.25801 -28.5662 -18.2729 0.0 0.0 0.0 9.66423 -4.26445 -6.99294 -24.7602 0.208849 3.76445 26.7664 23.6912 -3.69747 20.3399 -0.0 -0.0 -0.0 0.0 -0.0 13.0767 9.07852 -0.616202 -34.435 0.151192 -5.20379 35.1466 -14.0007 4.46066 -16.0773 0.0 0.0 0.0 0.0 0.0 
3482.94 686.311 -424.987 12.6662 -81.6829 13.6409 -1.2558 0.0791055 -1.86203 -1.25389 0.197411 -1.85323 -1.2591 0.621493 -1.75707 -1.26325 0.336247 -1.83314 -18.3768 8.39277 2.65586 -18.6288 14.7326 5.78232 -0.0 0.0 -0.0 6.67664 24.2196 11.9161 -11.9038 -5.25055 66.7841 0.430323 -12.0338 0.0453574 3.53372 0.111033 -0.437631 -2.42919 10.2392 -11.3773 -0.0 0.0 -0.0 7.44621 -17.6821 -13.6514 -5.56248 26.6435 -56.3037 2.07219 45.7437 -0.874205 7.92871 -0.211135 0.989994 1.515 -28.8006 -19.8209 0.0 0.0 0.0 9.32523 -4.78211 -7.00304 -17.5041 0.316999 2.65703 21.5485 25.9097 -3.08707 18.1906 -0.0 -0.0 -0.0 0.0 -0.0 11.2698 8.85639 -1.9001 -32.5388 0.0615206 -4.9267 38.0987 -14.5361 4.75181 -16.1637 0.0 0.0 0.0 0.0 0.0 
3486.1 685.819 -427.446 9.58317 -81.7165 10.6731 -1.07923 0.0688293 -1.74946 -1.07755 0.179995 -1.74154 -1.08203 0.573532 -1.65424 -1.08572 0.30512 -1.72403 -17.7096 8.57082 3.1938 -17.9351 14.7364 6.25512 -0.0 0.0 -0.0 6.59636 24.2446 11.8013 -11.5546 -5.12967 67.1279 0.469819 -13.1017 0.0539518 3.2361 0.102725 -0.400521 -2.47341 10.6973 -11.4335 -0.0 0.0 -0.0 7.58142 -16.7452 -13.9505 -7.19726 26.119 -56.2514 2.00421 44.7887 -0.825916 9.12607 -0.231035 1.14164 1.741 -29.0347 -21.1974 0.0 0.0 0.0 7.95179 -4.3945 -6.74232 -11.941 0.304612 1.80391 17.0776 27.3979 -2.51367 16.8975 -0.0 -0.0 -0.0 0.0 -0.0 10.8901 8.60127 -1.63499 -31.2127 0.0042916 -4.73127 39.6674 -14.6577 4.89767 -16.4903 0.0 0.0 0.0 0.0 0.0 
3488.65 685.631 -429.203 6.6337 -81.9904 8.00307 -0.822648 -0.00563218 -1.62903 -0.821176 0.0980248 -1.62609 -0.823104 0.460224 -1.5627 -0.826452 0.207684 -1.61575 -17.1397 8.45164 2.31639 -17.3736 14.9482 5.31518 -0.0 0.0 -0.0 6.52945 24.0371 11.7251 -11.2565 -5.19808 67.3756 0.514711 -14.3043 0.0645868 3.23907 0.102809 -0.400891 -2.51426 11.1282 -11.4795 -0.0 0.0 -0.0 7.47583 -16.2566 -13.8177 -8.59957 25.9253 -56.4434 1.9594 44.1413 -0.794524 9.9516 -0.242907 1.24643 2.1211 -29.5721 -23.5626 0.0 0.0 0.0 8.19108 -4.31257 -6.87419 -8.51649 0.255847 1.28078 14.9906 27.863 -2.22997 15.2727 -0.0 -0.0 -0.0 0.0 -0.0 9.97612 7.34648 -0.895159 -26.7365 -0.155168 -4.06298 41.3635 -13.729 5.03435 -17.7294 0.0 0.0 0.0 0.0 0.0 
